<svg xmlns="http://www.w3.org/2000/svg" version="1.1" xmlns:xlink="http://www.w3.org/1999/xlink" xmlns:svgjs="http://svgjs.dev/svgjs" width="2000" height="1247" viewBox="0 0 2000 1247"><g transform="matrix(1,0,0,1,-1.2121212121212466,0.504858299595071)"><svg viewBox="0 0 396 247" data-background-color="#161618" preserveAspectRatio="xMidYMid meet" height="1247" width="2000" xmlns="http://www.w3.org/2000/svg" xmlns:xlink="http://www.w3.org/1999/xlink"><g id="tight-bounds" transform="matrix(1,0,0,1,0.2400000000000091,-0.09999999999999432)"><svg viewBox="0 0 395.52 247.2" height="247.2" width="395.52"><g><svg></svg></g><g><svg viewBox="0 0 395.52 247.2" height="247.2" width="395.52"><g transform="matrix(1,0,0,1,114.31442016806723,47.215199999999996)"><svg viewBox="0 0 166.89115966386552 152.7696" height="152.7696" width="166.89115966386552"><g><svg viewBox="0 0 166.89115966386552 152.7696" height="152.7696" width="166.89115966386552"><g><svg viewBox="0 0 166.89115966386552 152.7696" height="152.7696" width="166.89115966386552"><g><svg viewBox="0 0 166.89115966386552 152.7696" height="152.7696" width="166.89115966386552"><g><svg viewBox="0 0 166.89115966386552 152.7696" height="152.7696" width="166.89115966386552"><g><svg viewBox="0 0 166.89115966386552 152.7696" height="152.7696" width="166.89115966386552"><g transform="matrix(1,0,0,1,0,0)"><svg width="166.89115966386552" viewBox="2.9000000953674316 -35.099998474121094 39 35.69999694824219" height="152.7696" data-palette-color="#ffffff"><path d="M16.65-35.1L16.65-35.1Q18.9-35.1 20.5-35 22.1-34.9 23.45-34.68 24.8-34.45 26.25-34.05L26.25-34.05 25.75-30.3Q24.25-30.45 22.95-30.53 21.65-30.6 20.18-30.65 18.7-30.7 16.65-30.7L16.65-30.7Q13.45-30.7 11.6-29.45 9.75-28.2 8.97-25.28 8.2-22.35 8.2-17.25L8.2-17.25Q8.2-12.15 8.97-9.22 9.75-6.3 11.6-5.05 13.45-3.8 16.65-3.8L16.65-3.8Q19.9-3.8 22.13-3.93 24.35-4.05 26.45-4.35L26.45-4.35 26.95-0.6Q24.75 0.05 22.43 0.33 20.1 0.6 16.65 0.6L16.65 0.6Q11.65 0.6 8.63-1.13 5.6-2.85 4.25-6.75 2.9-10.65 2.9-17.25L2.9-17.25Q2.9-23.85 4.25-27.75 5.6-31.65 8.63-33.38 11.65-35.1 16.65-35.1ZM36.9-34.5L41.9-34.5 41.9-7.15Q41.9-3.4 40.1-1.48 38.3 0.45 35 0.45L35 0.45Q34.3 0.45 33.35 0.38 32.4 0.3 31.52 0.15 30.65 0 30.05-0.25L30.05-0.25 30.6-3.7 33.1-3.7Q36.9-3.7 36.9-7.3L36.9-7.3 36.9-34.5Z" opacity="1" transform="matrix(1,0,0,1,0,0)" fill="#ffffff" class="undefined-text-0" data-fill-palette-color="primary" id="text-0"></path></svg></g></svg></g></svg></g></svg></g></svg></g></svg></g></svg></g><path d="M296.616 41.215L296.616 0 49.416 0 49.416 247.2 296.616 247.2 296.616 205.985 282.839 205.985 282.839 233.423 63.193 233.423 63.193 13.777 282.839 13.777 282.839 41.215Z" fill="#ffffff" stroke="transparent" data-fill-palette-color="primary"></path></svg></g><defs></defs></svg><rect width="395.52" height="247.2" fill="none" stroke="none" visibility="hidden"></rect></g></svg></g></svg>